ISO-10303-21;
HEADER;
/* Generated by software containing ST-Developer
 * from STEP Tools, Inc. (www.steptools.com) 
 */

FILE_DESCRIPTION(
/* description */ (''),
/* implementation_level */ '2;1');

FILE_NAME(
/* name */ 'base_joint.step',
/* time_stamp */ '2026-06-11T21:49:30+09:00',
/* author */ (''),
/* organization */ (''),
/* preprocessor_version */ 'ST-DEVELOPER v20.1',
/* originating_system */ 'Autodesk Translation Framework v15.8.0.0',
/* authorisation */ '');

FILE_SCHEMA (('AUTOMOTIVE_DESIGN { 1 0 10303 214 3 1 1 }'));
ENDSEC;

DATA;
#10=MECHANICAL_DESIGN_GEOMETRIC_PRESENTATION_REPRESENTATION('',(#13),#1357);
#11=SHAPE_REPRESENTATION_RELATIONSHIP('SRR','None',#1364,#12);
#12=ADVANCED_BREP_SHAPE_REPRESENTATION('',(#14),#1356);
#13=STYLED_ITEM('',(#1373),#14);
#14=MANIFOLD_SOLID_BREP('\X2\BCF8CCB4\X0\1',#746);
#15=PLANE('',#769);
#16=PLANE('',#779);
#17=PLANE('',#794);
#18=PLANE('',#800);
#19=PLANE('',#801);
#20=PLANE('',#811);
#21=PLANE('',#815);
#22=PLANE('',#819);
#23=PLANE('',#823);
#24=PLANE('',#827);
#25=PLANE('',#831);
#26=PLANE('',#835);
#27=PLANE('',#839);
#28=PLANE('',#847);
#29=PLANE('',#851);
#30=PLANE('',#858);
#31=FACE_BOUND('',#189,.T.);
#32=FACE_BOUND('',#191,.T.);
#33=FACE_BOUND('',#192,.T.);
#34=FACE_BOUND('',#193,.T.);
#35=FACE_BOUND('',#194,.T.);
#36=FACE_BOUND('',#195,.T.);
#37=FACE_BOUND('',#198,.T.);
#38=FACE_BOUND('',#199,.T.);
#39=FACE_BOUND('',#200,.T.);
#40=FACE_BOUND('',#201,.T.);
#41=FACE_BOUND('',#202,.T.);
#42=FACE_BOUND('',#229,.T.);
#43=FACE_BOUND('',#232,.T.);
#44=FACE_BOUND('',#235,.T.);
#45=FACE_BOUND('',#236,.T.);
#46=FACE_BOUND('',#237,.T.);
#47=FACE_BOUND('',#238,.T.);
#48=FACE_BOUND('',#239,.T.);
#49=FACE_BOUND('',#240,.T.);
#50=FACE_BOUND('',#241,.T.);
#51=FACE_BOUND('',#242,.T.);
#52=FACE_BOUND('',#243,.T.);
#53=LINE('',#1150,#85);
#54=LINE('',#1154,#86);
#55=LINE('',#1158,#87);
#56=LINE('',#1179,#88);
#57=LINE('',#1190,#89);
#58=LINE('',#1209,#90);
#59=LINE('',#1220,#91);
#60=LINE('',#1222,#92);
#61=LINE('',#1224,#93);
#62=LINE('',#1227,#94);
#63=LINE('',#1230,#95);
#64=LINE('',#1233,#96);
#65=LINE('',#1237,#97);
#66=LINE('',#1243,#98);
#67=LINE('',#1250,#99);
#68=LINE('',#1257,#100);
#69=LINE('',#1264,#101);
#70=LINE('',#1271,#102);
#71=LINE('',#1278,#103);
#72=LINE('',#1285,#104);
#73=LINE('',#1292,#105);
#74=LINE('',#1306,#106);
#75=LINE('',#1334,#107);
#76=LINE('',#1336,#108);
#77=LINE('',#1337,#109);
#78=LINE('',#1339,#110);
#79=LINE('',#1341,#111);
#80=LINE('',#1344,#112);
#81=LINE('',#1346,#113);
#82=LINE('',#1348,#114);
#83=LINE('',#1350,#115);
#84=LINE('',#1352,#116);
#85=VECTOR('',#889,11.5);
#86=VECTOR('',#892,10.);
#87=VECTOR('',#895,10.);
#88=VECTOR('',#920,10.);
#89=VECTOR('',#931,10.);
#90=VECTOR('',#952,10.);
#91=VECTOR('',#963,10.);
#92=VECTOR('',#966,10.);
#93=VECTOR('',#969,10.);
#94=VECTOR('',#972,10.);
#95=VECTOR('',#975,10.);
#96=VECTOR('',#978,10.);
#97=VECTOR('',#983,10.);
#98=VECTOR('',#990,1.);
#99=VECTOR('',#999,1.);
#100=VECTOR('',#1008,1.);
#101=VECTOR('',#1017,0.999999999999999);
#102=VECTOR('',#1026,1.);
#103=VECTOR('',#1035,1.);
#104=VECTOR('',#1044,1.);
#105=VECTOR('',#1053,1.);
#106=VECTOR('',#1072,16.);
#107=VECTOR('',#1109,15.);
#108=VECTOR('',#1112,10.);
#109=VECTOR('',#1113,10.);
#110=VECTOR('',#1116,10.);
#111=VECTOR('',#1119,10.);
#112=VECTOR('',#1124,4.);
#113=VECTOR('',#1127,1.75);
#114=VECTOR('',#1130,1.75);
#115=VECTOR('',#1133,1.75);
#116=VECTOR('',#1136,1.75);
#117=CYLINDRICAL_SURFACE('',#765,13.5);
#118=CYLINDRICAL_SURFACE('',#802,9.);
#119=CYLINDRICAL_SURFACE('',#804,3.);
#120=CYLINDRICAL_SURFACE('',#806,9.);
#121=CYLINDRICAL_SURFACE('',#808,1.);
#122=CYLINDRICAL_SURFACE('',#812,1.);
#123=CYLINDRICAL_SURFACE('',#816,1.);
#124=CYLINDRICAL_SURFACE('',#820,0.999999999999999);
#125=CYLINDRICAL_SURFACE('',#824,1.);
#126=CYLINDRICAL_SURFACE('',#828,1.);
#127=CYLINDRICAL_SURFACE('',#832,1.);
#128=CYLINDRICAL_SURFACE('',#836,1.);
#129=CYLINDRICAL_SURFACE('',#844,16.);
#130=CYLINDRICAL_SURFACE('',#864,15.);
#131=CYLINDRICAL_SURFACE('',#865,3.);
#132=CYLINDRICAL_SURFACE('',#866,3.);
#133=CYLINDRICAL_SURFACE('',#867,3.);
#134=CYLINDRICAL_SURFACE('',#868,9.);
#135=CYLINDRICAL_SURFACE('',#869,4.);
#136=CYLINDRICAL_SURFACE('',#870,1.75);
#137=CYLINDRICAL_SURFACE('',#871,1.75);
#138=CYLINDRICAL_SURFACE('',#872,1.75);
#139=CYLINDRICAL_SURFACE('',#873,1.75);
#140=CYLINDRICAL_SURFACE('',#874,9.);
#141=FACE_OUTER_BOUND('',#187,.T.);
#142=FACE_OUTER_BOUND('',#188,.T.);
#143=FACE_OUTER_BOUND('',#190,.T.);
#144=FACE_OUTER_BOUND('',#196,.T.);
#145=FACE_OUTER_BOUND('',#197,.T.);
#146=FACE_OUTER_BOUND('',#203,.T.);
#147=FACE_OUTER_BOUND('',#204,.T.);
#148=FACE_OUTER_BOUND('',#205,.T.);
#149=FACE_OUTER_BOUND('',#206,.T.);
#150=FACE_OUTER_BOUND('',#207,.T.);
#151=FACE_OUTER_BOUND('',#208,.T.);
#152=FACE_OUTER_BOUND('',#209,.T.);
#153=FACE_OUTER_BOUND('',#210,.T.);
#154=FACE_OUTER_BOUND('',#211,.T.);
#155=FACE_OUTER_BOUND('',#212,.T.);
#156=FACE_OUTER_BOUND('',#213,.T.);
#157=FACE_OUTER_BOUND('',#214,.T.);
#158=FACE_OUTER_BOUND('',#215,.T.);
#159=FACE_OUTER_BOUND('',#216,.T.);
#160=FACE_OUTER_BOUND('',#217,.T.);
#161=FACE_OUTER_BOUND('',#218,.T.);
#162=FACE_OUTER_BOUND('',#219,.T.);
#163=FACE_OUTER_BOUND('',#220,.T.);
#164=FACE_OUTER_BOUND('',#221,.T.);
#165=FACE_OUTER_BOUND('',#222,.T.);
#166=FACE_OUTER_BOUND('',#223,.T.);
#167=FACE_OUTER_BOUND('',#224,.T.);
#168=FACE_OUTER_BOUND('',#225,.T.);
#169=FACE_OUTER_BOUND('',#226,.T.);
#170=FACE_OUTER_BOUND('',#227,.T.);
#171=FACE_OUTER_BOUND('',#228,.T.);
#172=FACE_OUTER_BOUND('',#230,.T.);
#173=FACE_OUTER_BOUND('',#231,.T.);
#174=FACE_OUTER_BOUND('',#233,.T.);
#175=FACE_OUTER_BOUND('',#234,.T.);
#176=FACE_OUTER_BOUND('',#244,.T.);
#177=FACE_OUTER_BOUND('',#245,.T.);
#178=FACE_OUTER_BOUND('',#246,.T.);
#179=FACE_OUTER_BOUND('',#247,.T.);
#180=FACE_OUTER_BOUND('',#248,.T.);
#181=FACE_OUTER_BOUND('',#249,.T.);
#182=FACE_OUTER_BOUND('',#250,.T.);
#183=FACE_OUTER_BOUND('',#251,.T.);
#184=FACE_OUTER_BOUND('',#252,.T.);
#185=FACE_OUTER_BOUND('',#253,.T.);
#186=FACE_OUTER_BOUND('',#254,.T.);
#187=EDGE_LOOP('',(#492,#493,#494,#495,#496));
#188=EDGE_LOOP('',(#497,#498,#499,#500,#501));
#189=EDGE_LOOP('',(#502,#503,#504,#505));
#190=EDGE_LOOP('',(#506));
#191=EDGE_LOOP('',(#507));
#192=EDGE_LOOP('',(#508));
#193=EDGE_LOOP('',(#509));
#194=EDGE_LOOP('',(#510));
#195=EDGE_LOOP('',(#511));
#196=EDGE_LOOP('',(#512,#513,#514,#515));
#197=EDGE_LOOP('',(#516,#517,#518,#519,#520,#521,#522,#523));
#198=EDGE_LOOP('',(#524));
#199=EDGE_LOOP('',(#525));
#200=EDGE_LOOP('',(#526));
#201=EDGE_LOOP('',(#527));
#202=EDGE_LOOP('',(#528));
#203=EDGE_LOOP('',(#529,#530,#531,#532));
#204=EDGE_LOOP('',(#533,#534,#535,#536,#537,#538,#539,#540));
#205=EDGE_LOOP('',(#541,#542,#543,#544,#545,#546));
#206=EDGE_LOOP('',(#547,#548,#549,#550,#551,#552));
#207=EDGE_LOOP('',(#553,#554,#555,#556,#557,#558));
#208=EDGE_LOOP('',(#559,#560,#561,#562));
#209=EDGE_LOOP('',(#563,#564,#565,#566));
#210=EDGE_LOOP('',(#567,#568,#569,#570));
#211=EDGE_LOOP('',(#571));
#212=EDGE_LOOP('',(#572,#573,#574,#575));
#213=EDGE_LOOP('',(#576));
#214=EDGE_LOOP('',(#577,#578,#579,#580));
#215=EDGE_LOOP('',(#581));
#216=EDGE_LOOP('',(#582,#583,#584,#585));
#217=EDGE_LOOP('',(#586));
#218=EDGE_LOOP('',(#587,#588,#589,#590));
#219=EDGE_LOOP('',(#591));
#220=EDGE_LOOP('',(#592,#593,#594,#595));
#221=EDGE_LOOP('',(#596));
#222=EDGE_LOOP('',(#597,#598,#599,#600));
#223=EDGE_LOOP('',(#601));
#224=EDGE_LOOP('',(#602,#603,#604,#605));
#225=EDGE_LOOP('',(#606));
#226=EDGE_LOOP('',(#607,#608,#609,#610));
#227=EDGE_LOOP('',(#611,#612,#613,#614,#615));
#228=EDGE_LOOP('',(#616));
#229=EDGE_LOOP('',(#617));
#230=EDGE_LOOP('',(#618,#619,#620,#621,#622));
#231=EDGE_LOOP('',(#623));
#232=EDGE_LOOP('',(#624));
#233=EDGE_LOOP('',(#625,#626,#627,#628,#629));
#234=EDGE_LOOP('',(#630));
#235=EDGE_LOOP('',(#631));
#236=EDGE_LOOP('',(#632));
#237=EDGE_LOOP('',(#633));
#238=EDGE_LOOP('',(#634));
#239=EDGE_LOOP('',(#635));
#240=EDGE_LOOP('',(#636));
#241=EDGE_LOOP('',(#637));
#242=EDGE_LOOP('',(#638));
#243=EDGE_LOOP('',(#639,#640,#641,#642,#643,#644,#645,#646));
#244=EDGE_LOOP('',(#647,#648,#649,#650,#651));
#245=EDGE_LOOP('',(#652,#653,#654,#655));
#246=EDGE_LOOP('',(#656,#657,#658,#659));
#247=EDGE_LOOP('',(#660,#661,#662,#663));
#248=EDGE_LOOP('',(#664,#665,#666,#667,#668,#669));
#249=EDGE_LOOP('',(#670,#671,#672,#673));
#250=EDGE_LOOP('',(#674,#675,#676,#677));
#251=EDGE_LOOP('',(#678,#679,#680,#681));
#252=EDGE_LOOP('',(#682,#683,#684,#685));
#253=EDGE_LOOP('',(#686,#687,#688,#689));
#254=EDGE_LOOP('',(#690,#691,#692,#693));
#255=CIRCLE('',#761,13.2);
#256=CIRCLE('',#762,0.3);
#257=CIRCLE('',#763,13.5);
#258=CIRCLE('',#764,13.5);
#259=CIRCLE('',#766,13.5);
#260=CIRCLE('',#767,13.5);
#261=CIRCLE('',#768,13.5);
#262=CIRCLE('',#770,1.75);
#263=CIRCLE('',#771,1.75);
#264=CIRCLE('',#772,1.75);
#265=CIRCLE('',#773,1.75);
#266=CIRCLE('',#774,4.);
#267=CIRCLE('',#776,0.3);
#268=CIRCLE('',#777,13.2);
#269=CIRCLE('',#778,0.3);
#270=CIRCLE('',#780,9.);
#271=CIRCLE('',#781,3.);
#272=CIRCLE('',#782,9.);
#273=CIRCLE('',#783,3.);
#274=CIRCLE('',#784,9.);
#275=CIRCLE('',#785,1.75);
#276=CIRCLE('',#786,1.75);
#277=CIRCLE('',#787,4.);
#278=CIRCLE('',#788,1.75);
#279=CIRCLE('',#789,1.75);
#280=CIRCLE('',#791,0.3);
#281=CIRCLE('',#792,13.2);
#282=CIRCLE('',#793,0.3);
#283=CIRCLE('',#795,9.);
#284=CIRCLE('',#796,3.);
#285=CIRCLE('',#797,9.);
#286=CIRCLE('',#798,3.);
#287=CIRCLE('',#799,9.);
#288=CIRCLE('',#803,9.);
#289=CIRCLE('',#805,3.);
#290=CIRCLE('',#807,9.);
#291=CIRCLE('',#809,1.);
#292=CIRCLE('',#810,1.);
#293=CIRCLE('',#813,1.);
#294=CIRCLE('',#814,1.);
#295=CIRCLE('',#817,1.);
#296=CIRCLE('',#818,1.);
#297=CIRCLE('',#821,0.999999999999999);
#298=CIRCLE('',#822,0.999999999999999);
#299=CIRCLE('',#825,1.);
#300=CIRCLE('',#826,1.);
#301=CIRCLE('',#829,1.);
#302=CIRCLE('',#830,1.);
#303=CIRCLE('',#833,1.);
#304=CIRCLE('',#834,1.);
#305=CIRCLE('',#837,1.);
#306=CIRCLE('',#838,1.);
#307=CIRCLE('',#841,16.);
#308=CIRCLE('',#842,0.3);
#309=CIRCLE('',#843,15.7);
#310=CIRCLE('',#845,16.);
#311=CIRCLE('',#846,16.);
#312=CIRCLE('',#849,0.3);
#313=CIRCLE('',#850,15.7);
#314=CIRCLE('',#852,15.);
#315=CIRCLE('',#854,14.7);
#316=CIRCLE('',#855,0.3);
#317=CIRCLE('',#856,15.);
#318=CIRCLE('',#857,15.);
#319=CIRCLE('',#859,3.);
#320=CIRCLE('',#860,9.);
#321=CIRCLE('',#861,3.);
#322=CIRCLE('',#862,3.);
#323=CIRCLE('',#863,9.);
#324=VERTEX_POINT('',#1141);
#325=VERTEX_POINT('',#1143);
#326=VERTEX_POINT('',#1145);
#327=VERTEX_POINT('',#1149);
#328=VERTEX_POINT('',#1152);
#329=VERTEX_POINT('',#1153);
#330=VERTEX_POINT('',#1155);
#331=VERTEX_POINT('',#1157);
#332=VERTEX_POINT('',#1161);
#333=VERTEX_POINT('',#1163);
#334=VERTEX_POINT('',#1165);
#335=VERTEX_POINT('',#1167);
#336=VERTEX_POINT('',#1169);
#337=VERTEX_POINT('',#1172);
#338=VERTEX_POINT('',#1174);
#339=VERTEX_POINT('',#1178);
#340=VERTEX_POINT('',#1180);
#341=VERTEX_POINT('',#1182);
#342=VERTEX_POINT('',#1184);
#343=VERTEX_POINT('',#1186);
#344=VERTEX_POINT('',#1188);
#345=VERTEX_POINT('',#1191);
#346=VERTEX_POINT('',#1193);
#347=VERTEX_POINT('',#1195);
#348=VERTEX_POINT('',#1197);
#349=VERTEX_POINT('',#1199);
#350=VERTEX_POINT('',#1202);
#351=VERTEX_POINT('',#1204);
#352=VERTEX_POINT('',#1208);
#353=VERTEX_POINT('',#1210);
#354=VERTEX_POINT('',#1212);
#355=VERTEX_POINT('',#1214);
#356=VERTEX_POINT('',#1216);
#357=VERTEX_POINT('',#1218);
#358=VERTEX_POINT('',#1226);
#359=VERTEX_POINT('',#1228);
#360=VERTEX_POINT('',#1232);
#361=VERTEX_POINT('',#1236);
#362=VERTEX_POINT('',#1240);
#363=VERTEX_POINT('',#1242);
#364=VERTEX_POINT('',#1247);
#365=VERTEX_POINT('',#1249);
#366=VERTEX_POINT('',#1254);
#367=VERTEX_POINT('',#1256);
#368=VERTEX_POINT('',#1261);
#369=VERTEX_POINT('',#1263);
#370=VERTEX_POINT('',#1268);
#371=VERTEX_POINT('',#1270);
#372=VERTEX_POINT('',#1275);
#373=VERTEX_POINT('',#1277);
#374=VERTEX_POINT('',#1282);
#375=VERTEX_POINT('',#1284);
#376=VERTEX_POINT('',#1289);
#377=VERTEX_POINT('',#1291);
#378=VERTEX_POINT('',#1296);
#379=VERTEX_POINT('',#1298);
#380=VERTEX_POINT('',#1302);
#381=VERTEX_POINT('',#1303);
#382=VERTEX_POINT('',#1309);
#383=VERTEX_POINT('',#1313);
#384=VERTEX_POINT('',#1316);
#385=VERTEX_POINT('',#1318);
#386=VERTEX_POINT('',#1320);
#387=VERTEX_POINT('',#1324);
#388=VERTEX_POINT('',#1325);
#389=VERTEX_POINT('',#1327);
#390=VERTEX_POINT('',#1330);
#391=EDGE_CURVE('',#324,#324,#255,.T.);
#392=EDGE_CURVE('',#324,#325,#256,.T.);
#393=EDGE_CURVE('',#325,#326,#257,.T.);
#394=EDGE_CURVE('',#326,#325,#258,.T.);
#395=EDGE_CURVE('',#326,#327,#53,.T.);
#396=EDGE_CURVE('',#327,#327,#259,.T.);
#397=EDGE_CURVE('',#328,#329,#54,.T.);
#398=EDGE_CURVE('',#330,#329,#260,.T.);
#399=EDGE_CURVE('',#330,#331,#55,.T.);
#400=EDGE_CURVE('',#328,#331,#261,.T.);
#401=EDGE_CURVE('',#332,#332,#262,.T.);
#402=EDGE_CURVE('',#333,#333,#263,.T.);
#403=EDGE_CURVE('',#334,#334,#264,.T.);
#404=EDGE_CURVE('',#335,#335,#265,.T.);
#405=EDGE_CURVE('',#336,#336,#266,.T.);
#406=EDGE_CURVE('',#331,#337,#267,.F.);
#407=EDGE_CURVE('',#337,#338,#268,.T.);
#408=EDGE_CURVE('',#338,#328,#269,.F.);
#409=EDGE_CURVE('',#339,#337,#56,.T.);
#410=EDGE_CURVE('',#340,#339,#270,.T.);
#411=EDGE_CURVE('',#341,#340,#271,.T.);
#412=EDGE_CURVE('',#342,#341,#272,.T.);
#413=EDGE_CURVE('',#343,#342,#273,.T.);
#414=EDGE_CURVE('',#344,#343,#274,.T.);
#415=EDGE_CURVE('',#338,#344,#57,.T.);
#416=EDGE_CURVE('',#345,#345,#275,.T.);
#417=EDGE_CURVE('',#346,#346,#276,.T.);
#418=EDGE_CURVE('',#347,#347,#277,.T.);
#419=EDGE_CURVE('',#348,#348,#278,.T.);
#420=EDGE_CURVE('',#349,#349,#279,.T.);
#421=EDGE_CURVE('',#329,#350,#280,.F.);
#422=EDGE_CURVE('',#350,#351,#281,.T.);
#423=EDGE_CURVE('',#351,#330,#282,.F.);
#424=EDGE_CURVE('',#350,#352,#58,.T.);
#425=EDGE_CURVE('',#353,#352,#283,.T.);
#426=EDGE_CURVE('',#354,#353,#284,.T.);
#427=EDGE_CURVE('',#355,#354,#285,.T.);
#428=EDGE_CURVE('',#356,#355,#286,.T.);
#429=EDGE_CURVE('',#357,#356,#287,.T.);
#430=EDGE_CURVE('',#357,#351,#59,.T.);
#431=EDGE_CURVE('',#352,#344,#60,.T.);
#432=EDGE_CURVE('',#339,#357,#61,.T.);
#433=EDGE_CURVE('',#356,#358,#62,.T.);
#434=EDGE_CURVE('',#359,#358,#288,.T.);
#435=EDGE_CURVE('',#359,#340,#63,.T.);
#436=EDGE_CURVE('',#360,#355,#64,.T.);
#437=EDGE_CURVE('',#358,#360,#289,.T.);
#438=EDGE_CURVE('',#354,#361,#65,.T.);
#439=EDGE_CURVE('',#360,#361,#290,.T.);
#440=EDGE_CURVE('',#362,#362,#291,.T.);
#441=EDGE_CURVE('',#362,#363,#66,.T.);
#442=EDGE_CURVE('',#363,#363,#292,.T.);
#443=EDGE_CURVE('',#364,#364,#293,.T.);
#444=EDGE_CURVE('',#364,#365,#67,.T.);
#445=EDGE_CURVE('',#365,#365,#294,.T.);
#446=EDGE_CURVE('',#366,#366,#295,.T.);
#447=EDGE_CURVE('',#366,#367,#68,.T.);
#448=EDGE_CURVE('',#367,#367,#296,.T.);
#449=EDGE_CURVE('',#368,#368,#297,.T.);
#450=EDGE_CURVE('',#368,#369,#69,.T.);
#451=EDGE_CURVE('',#369,#369,#298,.T.);
#452=EDGE_CURVE('',#370,#370,#299,.T.);
#453=EDGE_CURVE('',#370,#371,#70,.T.);
#454=EDGE_CURVE('',#371,#371,#300,.T.);
#455=EDGE_CURVE('',#372,#372,#301,.T.);
#456=EDGE_CURVE('',#372,#373,#71,.T.);
#457=EDGE_CURVE('',#373,#373,#302,.T.);
#458=EDGE_CURVE('',#374,#374,#303,.T.);
#459=EDGE_CURVE('',#374,#375,#72,.T.);
#460=EDGE_CURVE('',#375,#375,#304,.T.);
#461=EDGE_CURVE('',#376,#376,#305,.T.);
#462=EDGE_CURVE('',#376,#377,#73,.T.);
#463=EDGE_CURVE('',#377,#377,#306,.T.);
#464=EDGE_CURVE('',#378,#378,#307,.T.);
#465=EDGE_CURVE('',#378,#379,#308,.T.);
#466=EDGE_CURVE('',#379,#379,#309,.T.);
#467=EDGE_CURVE('',#380,#381,#310,.T.);
#468=EDGE_CURVE('',#381,#380,#311,.T.);
#469=EDGE_CURVE('',#381,#378,#74,.T.);
#470=EDGE_CURVE('',#380,#382,#312,.T.);
#471=EDGE_CURVE('',#382,#382,#313,.T.);
#472=EDGE_CURVE('',#383,#383,#314,.T.);
#473=EDGE_CURVE('',#384,#384,#315,.T.);
#474=EDGE_CURVE('',#384,#385,#316,.T.);
#475=EDGE_CURVE('',#385,#386,#317,.T.);
#476=EDGE_CURVE('',#386,#385,#318,.T.);
#477=EDGE_CURVE('',#387,#388,#319,.T.);
#478=EDGE_CURVE('',#388,#389,#320,.T.);
#479=EDGE_CURVE('',#389,#359,#321,.T.);
#480=EDGE_CURVE('',#361,#390,#322,.T.);
#481=EDGE_CURVE('',#390,#387,#323,.T.);
#482=EDGE_CURVE('',#386,#383,#75,.T.);
#483=EDGE_CURVE('',#343,#387,#76,.T.);
#484=EDGE_CURVE('',#388,#342,#77,.T.);
#485=EDGE_CURVE('',#341,#389,#78,.T.);
#486=EDGE_CURVE('',#390,#353,#79,.T.);
#487=EDGE_CURVE('',#336,#347,#80,.T.);
#488=EDGE_CURVE('',#348,#335,#81,.T.);
#489=EDGE_CURVE('',#345,#334,#82,.T.);
#490=EDGE_CURVE('',#346,#333,#83,.T.);
#491=EDGE_CURVE('',#349,#332,#84,.T.);
#492=ORIENTED_EDGE('',*,*,#391,.T.);
#493=ORIENTED_EDGE('',*,*,#392,.T.);
#494=ORIENTED_EDGE('',*,*,#393,.T.);
#495=ORIENTED_EDGE('',*,*,#394,.T.);
#496=ORIENTED_EDGE('',*,*,#392,.F.);
#497=ORIENTED_EDGE('',*,*,#394,.F.);
#498=ORIENTED_EDGE('',*,*,#395,.T.);
#499=ORIENTED_EDGE('',*,*,#396,.T.);
#500=ORIENTED_EDGE('',*,*,#395,.F.);
#501=ORIENTED_EDGE('',*,*,#393,.F.);
#502=ORIENTED_EDGE('',*,*,#397,.T.);
#503=ORIENTED_EDGE('',*,*,#398,.F.);
#504=ORIENTED_EDGE('',*,*,#399,.T.);
#505=ORIENTED_EDGE('',*,*,#400,.F.);
#506=ORIENTED_EDGE('',*,*,#391,.F.);
#507=ORIENTED_EDGE('',*,*,#401,.T.);
#508=ORIENTED_EDGE('',*,*,#402,.T.);
#509=ORIENTED_EDGE('',*,*,#403,.T.);
#510=ORIENTED_EDGE('',*,*,#404,.T.);
#511=ORIENTED_EDGE('',*,*,#405,.T.);
#512=ORIENTED_EDGE('',*,*,#406,.T.);
#513=ORIENTED_EDGE('',*,*,#407,.T.);
#514=ORIENTED_EDGE('',*,*,#408,.T.);
#515=ORIENTED_EDGE('',*,*,#400,.T.);
#516=ORIENTED_EDGE('',*,*,#407,.F.);
#517=ORIENTED_EDGE('',*,*,#409,.F.);
#518=ORIENTED_EDGE('',*,*,#410,.F.);
#519=ORIENTED_EDGE('',*,*,#411,.F.);
#520=ORIENTED_EDGE('',*,*,#412,.F.);
#521=ORIENTED_EDGE('',*,*,#413,.F.);
#522=ORIENTED_EDGE('',*,*,#414,.F.);
#523=ORIENTED_EDGE('',*,*,#415,.F.);
#524=ORIENTED_EDGE('',*,*,#416,.T.);
#525=ORIENTED_EDGE('',*,*,#417,.T.);
#526=ORIENTED_EDGE('',*,*,#418,.T.);
#527=ORIENTED_EDGE('',*,*,#419,.T.);
#528=ORIENTED_EDGE('',*,*,#420,.T.);
#529=ORIENTED_EDGE('',*,*,#421,.T.);
#530=ORIENTED_EDGE('',*,*,#422,.T.);
#531=ORIENTED_EDGE('',*,*,#423,.T.);
#532=ORIENTED_EDGE('',*,*,#398,.T.);
#533=ORIENTED_EDGE('',*,*,#422,.F.);
#534=ORIENTED_EDGE('',*,*,#424,.T.);
#535=ORIENTED_EDGE('',*,*,#425,.F.);
#536=ORIENTED_EDGE('',*,*,#426,.F.);
#537=ORIENTED_EDGE('',*,*,#427,.F.);
#538=ORIENTED_EDGE('',*,*,#428,.F.);
#539=ORIENTED_EDGE('',*,*,#429,.F.);
#540=ORIENTED_EDGE('',*,*,#430,.T.);
#541=ORIENTED_EDGE('',*,*,#397,.F.);
#542=ORIENTED_EDGE('',*,*,#408,.F.);
#543=ORIENTED_EDGE('',*,*,#415,.T.);
#544=ORIENTED_EDGE('',*,*,#431,.F.);
#545=ORIENTED_EDGE('',*,*,#424,.F.);
#546=ORIENTED_EDGE('',*,*,#421,.F.);
#547=ORIENTED_EDGE('',*,*,#399,.F.);
#548=ORIENTED_EDGE('',*,*,#423,.F.);
#549=ORIENTED_EDGE('',*,*,#430,.F.);
#550=ORIENTED_EDGE('',*,*,#432,.F.);
#551=ORIENTED_EDGE('',*,*,#409,.T.);
#552=ORIENTED_EDGE('',*,*,#406,.F.);
#553=ORIENTED_EDGE('',*,*,#432,.T.);
#554=ORIENTED_EDGE('',*,*,#429,.T.);
#555=ORIENTED_EDGE('',*,*,#433,.T.);
#556=ORIENTED_EDGE('',*,*,#434,.F.);
#557=ORIENTED_EDGE('',*,*,#435,.T.);
#558=ORIENTED_EDGE('',*,*,#410,.T.);
#559=ORIENTED_EDGE('',*,*,#428,.T.);
#560=ORIENTED_EDGE('',*,*,#436,.F.);
#561=ORIENTED_EDGE('',*,*,#437,.F.);
#562=ORIENTED_EDGE('',*,*,#433,.F.);
#563=ORIENTED_EDGE('',*,*,#427,.T.);
#564=ORIENTED_EDGE('',*,*,#438,.T.);
#565=ORIENTED_EDGE('',*,*,#439,.F.);
#566=ORIENTED_EDGE('',*,*,#436,.T.);
#567=ORIENTED_EDGE('',*,*,#440,.F.);
#568=ORIENTED_EDGE('',*,*,#441,.T.);
#569=ORIENTED_EDGE('',*,*,#442,.T.);
#570=ORIENTED_EDGE('',*,*,#441,.F.);
#571=ORIENTED_EDGE('',*,*,#442,.F.);
#572=ORIENTED_EDGE('',*,*,#443,.F.);
#573=ORIENTED_EDGE('',*,*,#444,.T.);
#574=ORIENTED_EDGE('',*,*,#445,.T.);
#575=ORIENTED_EDGE('',*,*,#444,.F.);
#576=ORIENTED_EDGE('',*,*,#445,.F.);
#577=ORIENTED_EDGE('',*,*,#446,.F.);
#578=ORIENTED_EDGE('',*,*,#447,.T.);
#579=ORIENTED_EDGE('',*,*,#448,.T.);
#580=ORIENTED_EDGE('',*,*,#447,.F.);
#581=ORIENTED_EDGE('',*,*,#448,.F.);
#582=ORIENTED_EDGE('',*,*,#449,.F.);
#583=ORIENTED_EDGE('',*,*,#450,.T.);
#584=ORIENTED_EDGE('',*,*,#451,.T.);
#585=ORIENTED_EDGE('',*,*,#450,.F.);
#586=ORIENTED_EDGE('',*,*,#451,.F.);
#587=ORIENTED_EDGE('',*,*,#452,.F.);
#588=ORIENTED_EDGE('',*,*,#453,.T.);
#589=ORIENTED_EDGE('',*,*,#454,.T.);
#590=ORIENTED_EDGE('',*,*,#453,.F.);
#591=ORIENTED_EDGE('',*,*,#454,.F.);
#592=ORIENTED_EDGE('',*,*,#455,.F.);
#593=ORIENTED_EDGE('',*,*,#456,.T.);
#594=ORIENTED_EDGE('',*,*,#457,.T.);
#595=ORIENTED_EDGE('',*,*,#456,.F.);
#596=ORIENTED_EDGE('',*,*,#457,.F.);
#597=ORIENTED_EDGE('',*,*,#458,.F.);
#598=ORIENTED_EDGE('',*,*,#459,.T.);
#599=ORIENTED_EDGE('',*,*,#460,.T.);
#600=ORIENTED_EDGE('',*,*,#459,.F.);
#601=ORIENTED_EDGE('',*,*,#460,.F.);
#602=ORIENTED_EDGE('',*,*,#461,.F.);
#603=ORIENTED_EDGE('',*,*,#462,.T.);
#604=ORIENTED_EDGE('',*,*,#463,.T.);
#605=ORIENTED_EDGE('',*,*,#462,.F.);
#606=ORIENTED_EDGE('',*,*,#463,.F.);
#607=ORIENTED_EDGE('',*,*,#464,.T.);
#608=ORIENTED_EDGE('',*,*,#465,.T.);
#609=ORIENTED_EDGE('',*,*,#466,.T.);
#610=ORIENTED_EDGE('',*,*,#465,.F.);
#611=ORIENTED_EDGE('',*,*,#467,.F.);
#612=ORIENTED_EDGE('',*,*,#468,.F.);
#613=ORIENTED_EDGE('',*,*,#469,.T.);
#614=ORIENTED_EDGE('',*,*,#464,.F.);
#615=ORIENTED_EDGE('',*,*,#469,.F.);
#616=ORIENTED_EDGE('',*,*,#466,.F.);
#617=ORIENTED_EDGE('',*,*,#396,.F.);
#618=ORIENTED_EDGE('',*,*,#467,.T.);
#619=ORIENTED_EDGE('',*,*,#468,.T.);
#620=ORIENTED_EDGE('',*,*,#470,.T.);
#621=ORIENTED_EDGE('',*,*,#471,.T.);
#622=ORIENTED_EDGE('',*,*,#470,.F.);
#623=ORIENTED_EDGE('',*,*,#471,.F.);
#624=ORIENTED_EDGE('',*,*,#472,.F.);
#625=ORIENTED_EDGE('',*,*,#473,.T.);
#626=ORIENTED_EDGE('',*,*,#474,.T.);
#627=ORIENTED_EDGE('',*,*,#475,.T.);
#628=ORIENTED_EDGE('',*,*,#476,.T.);
#629=ORIENTED_EDGE('',*,*,#474,.F.);
#630=ORIENTED_EDGE('',*,*,#473,.F.);
#631=ORIENTED_EDGE('',*,*,#440,.T.);
#632=ORIENTED_EDGE('',*,*,#443,.T.);
#633=ORIENTED_EDGE('',*,*,#446,.T.);
#634=ORIENTED_EDGE('',*,*,#449,.T.);
#635=ORIENTED_EDGE('',*,*,#452,.T.);
#636=ORIENTED_EDGE('',*,*,#455,.T.);
#637=ORIENTED_EDGE('',*,*,#458,.T.);
#638=ORIENTED_EDGE('',*,*,#461,.T.);
#639=ORIENTED_EDGE('',*,*,#477,.T.);
#640=ORIENTED_EDGE('',*,*,#478,.T.);
#641=ORIENTED_EDGE('',*,*,#479,.T.);
#642=ORIENTED_EDGE('',*,*,#434,.T.);
#643=ORIENTED_EDGE('',*,*,#437,.T.);
#644=ORIENTED_EDGE('',*,*,#439,.T.);
#645=ORIENTED_EDGE('',*,*,#480,.T.);
#646=ORIENTED_EDGE('',*,*,#481,.T.);
#647=ORIENTED_EDGE('',*,*,#476,.F.);
#648=ORIENTED_EDGE('',*,*,#482,.T.);
#649=ORIENTED_EDGE('',*,*,#472,.T.);
#650=ORIENTED_EDGE('',*,*,#482,.F.);
#651=ORIENTED_EDGE('',*,*,#475,.F.);
#652=ORIENTED_EDGE('',*,*,#477,.F.);
#653=ORIENTED_EDGE('',*,*,#483,.F.);
#654=ORIENTED_EDGE('',*,*,#413,.T.);
#655=ORIENTED_EDGE('',*,*,#484,.F.);
#656=ORIENTED_EDGE('',*,*,#479,.F.);
#657=ORIENTED_EDGE('',*,*,#485,.F.);
#658=ORIENTED_EDGE('',*,*,#411,.T.);
#659=ORIENTED_EDGE('',*,*,#435,.F.);
#660=ORIENTED_EDGE('',*,*,#426,.T.);
#661=ORIENTED_EDGE('',*,*,#486,.F.);
#662=ORIENTED_EDGE('',*,*,#480,.F.);
#663=ORIENTED_EDGE('',*,*,#438,.F.);
#664=ORIENTED_EDGE('',*,*,#431,.T.);
#665=ORIENTED_EDGE('',*,*,#414,.T.);
#666=ORIENTED_EDGE('',*,*,#483,.T.);
#667=ORIENTED_EDGE('',*,*,#481,.F.);
#668=ORIENTED_EDGE('',*,*,#486,.T.);
#669=ORIENTED_EDGE('',*,*,#425,.T.);
#670=ORIENTED_EDGE('',*,*,#405,.F.);
#671=ORIENTED_EDGE('',*,*,#487,.T.);
#672=ORIENTED_EDGE('',*,*,#418,.F.);
#673=ORIENTED_EDGE('',*,*,#487,.F.);
#674=ORIENTED_EDGE('',*,*,#419,.F.);
#675=ORIENTED_EDGE('',*,*,#488,.T.);
#676=ORIENTED_EDGE('',*,*,#404,.F.);
#677=ORIENTED_EDGE('',*,*,#488,.F.);
#678=ORIENTED_EDGE('',*,*,#416,.F.);
#679=ORIENTED_EDGE('',*,*,#489,.T.);
#680=ORIENTED_EDGE('',*,*,#403,.F.);
#681=ORIENTED_EDGE('',*,*,#489,.F.);
#682=ORIENTED_EDGE('',*,*,#417,.F.);
#683=ORIENTED_EDGE('',*,*,#490,.T.);
#684=ORIENTED_EDGE('',*,*,#402,.F.);
#685=ORIENTED_EDGE('',*,*,#490,.F.);
#686=ORIENTED_EDGE('',*,*,#420,.F.);
#687=ORIENTED_EDGE('',*,*,#491,.T.);
#688=ORIENTED_EDGE('',*,*,#401,.F.);
#689=ORIENTED_EDGE('',*,*,#491,.F.);
#690=ORIENTED_EDGE('',*,*,#484,.T.);
#691=ORIENTED_EDGE('',*,*,#412,.T.);
#692=ORIENTED_EDGE('',*,*,#485,.T.);
#693=ORIENTED_EDGE('',*,*,#478,.F.);
#694=TOROIDAL_SURFACE('',#760,13.2,0.3);
#695=TOROIDAL_SURFACE('',#775,13.2,0.3);
#696=TOROIDAL_SURFACE('',#790,13.2,0.3);
#697=TOROIDAL_SURFACE('',#840,15.7,0.3);
#698=TOROIDAL_SURFACE('',#848,15.7,0.3);
#699=TOROIDAL_SURFACE('',#853,14.7,0.3);
#700=ADVANCED_FACE('',(#141),#694,.T.);
#701=ADVANCED_FACE('',(#142,#31),#117,.T.);
#702=ADVANCED_FACE('',(#143,#32,#33,#34,#35,#36),#15,.F.);
#703=ADVANCED_FACE('',(#144),#695,.T.);
#704=ADVANCED_FACE('',(#145,#37,#38,#39,#40,#41),#16,.T.);
#705=ADVANCED_FACE('',(#146),#696,.T.);
#706=ADVANCED_FACE('',(#147),#17,.F.);
#707=ADVANCED_FACE('',(#148),#18,.F.);
#708=ADVANCED_FACE('',(#149),#19,.F.);
#709=ADVANCED_FACE('',(#150),#118,.F.);
#710=ADVANCED_FACE('',(#151),#119,.F.);
#711=ADVANCED_FACE('',(#152),#120,.F.);
#712=ADVANCED_FACE('',(#153),#121,.F.);
#713=ADVANCED_FACE('',(#154),#20,.T.);
#714=ADVANCED_FACE('',(#155),#122,.F.);
#715=ADVANCED_FACE('',(#156),#21,.T.);
#716=ADVANCED_FACE('',(#157),#123,.F.);
#717=ADVANCED_FACE('',(#158),#22,.T.);
#718=ADVANCED_FACE('',(#159),#124,.F.);
#719=ADVANCED_FACE('',(#160),#23,.T.);
#720=ADVANCED_FACE('',(#161),#125,.F.);
#721=ADVANCED_FACE('',(#162),#24,.T.);
#722=ADVANCED_FACE('',(#163),#126,.F.);
#723=ADVANCED_FACE('',(#164),#25,.T.);
#724=ADVANCED_FACE('',(#165),#127,.F.);
#725=ADVANCED_FACE('',(#166),#26,.T.);
#726=ADVANCED_FACE('',(#167),#128,.F.);
#727=ADVANCED_FACE('',(#168),#27,.T.);
#728=ADVANCED_FACE('',(#169),#697,.T.);
#729=ADVANCED_FACE('',(#170),#129,.T.);
#730=ADVANCED_FACE('',(#171,#42),#28,.T.);
#731=ADVANCED_FACE('',(#172),#698,.T.);
#732=ADVANCED_FACE('',(#173,#43),#29,.T.);
#733=ADVANCED_FACE('',(#174),#699,.T.);
#734=ADVANCED_FACE('',(#175,#44,#45,#46,#47,#48,#49,#50,#51,#52),#30,.T.);
#735=ADVANCED_FACE('',(#176),#130,.T.);
#736=ADVANCED_FACE('',(#177),#131,.F.);
#737=ADVANCED_FACE('',(#178),#132,.F.);
#738=ADVANCED_FACE('',(#179),#133,.F.);
#739=ADVANCED_FACE('',(#180),#134,.F.);
#740=ADVANCED_FACE('',(#181),#135,.F.);
#741=ADVANCED_FACE('',(#182),#136,.F.);
#742=ADVANCED_FACE('',(#183),#137,.F.);
#743=ADVANCED_FACE('',(#184),#138,.F.);
#744=ADVANCED_FACE('',(#185),#139,.F.);
#745=ADVANCED_FACE('',(#186),#140,.F.);
#746=CLOSED_SHELL('',(#700,#701,#702,#703,#704,#705,#706,#707,#708,#709,
#710,#711,#712,#713,#714,#715,#716,#717,#718,#719,#720,#721,#722,#723,#724,
#725,#726,#727,#728,#729,#730,#731,#732,#733,#734,#735,#736,#737,#738,#739,
#740,#741,#742,#743,#744,#745));
#747=DERIVED_UNIT_ELEMENT(#749,1.);
#748=DERIVED_UNIT_ELEMENT(#1359,-3.);
#749=(
MASS_UNIT()
NAMED_UNIT(*)
SI_UNIT(.KILO.,.GRAM.)
);
#750=DERIVED_UNIT((#747,#748));
#751=MEASURE_REPRESENTATION_ITEM('density measure',
POSITIVE_RATIO_MEASURE(7850.),#750);
#752=PROPERTY_DEFINITION_REPRESENTATION(#757,#754);
#753=PROPERTY_DEFINITION_REPRESENTATION(#758,#755);
#754=REPRESENTATION('material name',(#756),#1356);
#755=REPRESENTATION('density',(#751),#1356);
#756=DESCRIPTIVE_REPRESENTATION_ITEM('\X2\AC15CCA0\X0\','\X2\AC15CCA0\X0\');
#757=PROPERTY_DEFINITION('material property','material name',#1366);
#758=PROPERTY_DEFINITION('material property','density of part',#1366);
#759=AXIS2_PLACEMENT_3D('',#1139,#875,#876);
#760=AXIS2_PLACEMENT_3D('',#1140,#877,#878);
#761=AXIS2_PLACEMENT_3D('',#1142,#879,#880);
#762=AXIS2_PLACEMENT_3D('',#1144,#881,#882);
#763=AXIS2_PLACEMENT_3D('',#1146,#883,#884);
#764=AXIS2_PLACEMENT_3D('',#1147,#885,#886);
#765=AXIS2_PLACEMENT_3D('',#1148,#887,#888);
#766=AXIS2_PLACEMENT_3D('',#1151,#890,#891);
#767=AXIS2_PLACEMENT_3D('',#1156,#893,#894);
#768=AXIS2_PLACEMENT_3D('',#1159,#896,#897);
#769=AXIS2_PLACEMENT_3D('',#1160,#898,#899);
#770=AXIS2_PLACEMENT_3D('',#1162,#900,#901);
#771=AXIS2_PLACEMENT_3D('',#1164,#902,#903);
#772=AXIS2_PLACEMENT_3D('',#1166,#904,#905);
#773=AXIS2_PLACEMENT_3D('',#1168,#906,#907);
#774=AXIS2_PLACEMENT_3D('',#1170,#908,#909);
#775=AXIS2_PLACEMENT_3D('',#1171,#910,#911);
#776=AXIS2_PLACEMENT_3D('',#1173,#912,#913);
#777=AXIS2_PLACEMENT_3D('',#1175,#914,#915);
#778=AXIS2_PLACEMENT_3D('',#1176,#916,#917);
#779=AXIS2_PLACEMENT_3D('',#1177,#918,#919);
#780=AXIS2_PLACEMENT_3D('',#1181,#921,#922);
#781=AXIS2_PLACEMENT_3D('',#1183,#923,#924);
#782=AXIS2_PLACEMENT_3D('',#1185,#925,#926);
#783=AXIS2_PLACEMENT_3D('',#1187,#927,#928);
#784=AXIS2_PLACEMENT_3D('',#1189,#929,#930);
#785=AXIS2_PLACEMENT_3D('',#1192,#932,#933);
#786=AXIS2_PLACEMENT_3D('',#1194,#934,#935);
#787=AXIS2_PLACEMENT_3D('',#1196,#936,#937);
#788=AXIS2_PLACEMENT_3D('',#1198,#938,#939);
#789=AXIS2_PLACEMENT_3D('',#1200,#940,#941);
#790=AXIS2_PLACEMENT_3D('',#1201,#942,#943);
#791=AXIS2_PLACEMENT_3D('',#1203,#944,#945);
#792=AXIS2_PLACEMENT_3D('',#1205,#946,#947);
#793=AXIS2_PLACEMENT_3D('',#1206,#948,#949);
#794=AXIS2_PLACEMENT_3D('',#1207,#950,#951);
#795=AXIS2_PLACEMENT_3D('',#1211,#953,#954);
#796=AXIS2_PLACEMENT_3D('',#1213,#955,#956);
#797=AXIS2_PLACEMENT_3D('',#1215,#957,#958);
#798=AXIS2_PLACEMENT_3D('',#1217,#959,#960);
#799=AXIS2_PLACEMENT_3D('',#1219,#961,#962);
#800=AXIS2_PLACEMENT_3D('',#1221,#964,#965);
#801=AXIS2_PLACEMENT_3D('',#1223,#967,#968);
#802=AXIS2_PLACEMENT_3D('',#1225,#970,#971);
#803=AXIS2_PLACEMENT_3D('',#1229,#973,#974);
#804=AXIS2_PLACEMENT_3D('',#1231,#976,#977);
#805=AXIS2_PLACEMENT_3D('',#1234,#979,#980);
#806=AXIS2_PLACEMENT_3D('',#1235,#981,#982);
#807=AXIS2_PLACEMENT_3D('',#1238,#984,#985);
#808=AXIS2_PLACEMENT_3D('',#1239,#986,#987);
#809=AXIS2_PLACEMENT_3D('',#1241,#988,#989);
#810=AXIS2_PLACEMENT_3D('',#1244,#991,#992);
#811=AXIS2_PLACEMENT_3D('',#1245,#993,#994);
#812=AXIS2_PLACEMENT_3D('',#1246,#995,#996);
#813=AXIS2_PLACEMENT_3D('',#1248,#997,#998);
#814=AXIS2_PLACEMENT_3D('',#1251,#1000,#1001);
#815=AXIS2_PLACEMENT_3D('',#1252,#1002,#1003);
#816=AXIS2_PLACEMENT_3D('',#1253,#1004,#1005);
#817=AXIS2_PLACEMENT_3D('',#1255,#1006,#1007);
#818=AXIS2_PLACEMENT_3D('',#1258,#1009,#1010);
#819=AXIS2_PLACEMENT_3D('',#1259,#1011,#1012);
#820=AXIS2_PLACEMENT_3D('',#1260,#1013,#1014);
#821=AXIS2_PLACEMENT_3D('',#1262,#1015,#1016);
#822=AXIS2_PLACEMENT_3D('',#1265,#1018,#1019);
#823=AXIS2_PLACEMENT_3D('',#1266,#1020,#1021);
#824=AXIS2_PLACEMENT_3D('',#1267,#1022,#1023);
#825=AXIS2_PLACEMENT_3D('',#1269,#1024,#1025);
#826=AXIS2_PLACEMENT_3D('',#1272,#1027,#1028);
#827=AXIS2_PLACEMENT_3D('',#1273,#1029,#1030);
#828=AXIS2_PLACEMENT_3D('',#1274,#1031,#1032);
#829=AXIS2_PLACEMENT_3D('',#1276,#1033,#1034);
#830=AXIS2_PLACEMENT_3D('',#1279,#1036,#1037);
#831=AXIS2_PLACEMENT_3D('',#1280,#1038,#1039);
#832=AXIS2_PLACEMENT_3D('',#1281,#1040,#1041);
#833=AXIS2_PLACEMENT_3D('',#1283,#1042,#1043);
#834=AXIS2_PLACEMENT_3D('',#1286,#1045,#1046);
#835=AXIS2_PLACEMENT_3D('',#1287,#1047,#1048);
#836=AXIS2_PLACEMENT_3D('',#1288,#1049,#1050);
#837=AXIS2_PLACEMENT_3D('',#1290,#1051,#1052);
#838=AXIS2_PLACEMENT_3D('',#1293,#1054,#1055);
#839=AXIS2_PLACEMENT_3D('',#1294,#1056,#1057);
#840=AXIS2_PLACEMENT_3D('',#1295,#1058,#1059);
#841=AXIS2_PLACEMENT_3D('',#1297,#1060,#1061);
#842=AXIS2_PLACEMENT_3D('',#1299,#1062,#1063);
#843=AXIS2_PLACEMENT_3D('',#1300,#1064,#1065);
#844=AXIS2_PLACEMENT_3D('',#1301,#1066,#1067);
#845=AXIS2_PLACEMENT_3D('',#1304,#1068,#1069);
#846=AXIS2_PLACEMENT_3D('',#1305,#1070,#1071);
#847=AXIS2_PLACEMENT_3D('',#1307,#1073,#1074);
#848=AXIS2_PLACEMENT_3D('',#1308,#1075,#1076);
#849=AXIS2_PLACEMENT_3D('',#1310,#1077,#1078);
#850=AXIS2_PLACEMENT_3D('',#1311,#1079,#1080);
#851=AXIS2_PLACEMENT_3D('',#1312,#1081,#1082);
#852=AXIS2_PLACEMENT_3D('',#1314,#1083,#1084);
#853=AXIS2_PLACEMENT_3D('',#1315,#1085,#1086);
#854=AXIS2_PLACEMENT_3D('',#1317,#1087,#1088);
#855=AXIS2_PLACEMENT_3D('',#1319,#1089,#1090);
#856=AXIS2_PLACEMENT_3D('',#1321,#1091,#1092);
#857=AXIS2_PLACEMENT_3D('',#1322,#1093,#1094);
#858=AXIS2_PLACEMENT_3D('',#1323,#1095,#1096);
#859=AXIS2_PLACEMENT_3D('',#1326,#1097,#1098);
#860=AXIS2_PLACEMENT_3D('',#1328,#1099,#1100);
#861=AXIS2_PLACEMENT_3D('',#1329,#1101,#1102);
#862=AXIS2_PLACEMENT_3D('',#1331,#1103,#1104);
#863=AXIS2_PLACEMENT_3D('',#1332,#1105,#1106);
#864=AXIS2_PLACEMENT_3D('',#1333,#1107,#1108);
#865=AXIS2_PLACEMENT_3D('',#1335,#1110,#1111);
#866=AXIS2_PLACEMENT_3D('',#1338,#1114,#1115);
#867=AXIS2_PLACEMENT_3D('',#1340,#1117,#1118);
#868=AXIS2_PLACEMENT_3D('',#1342,#1120,#1121);
#869=AXIS2_PLACEMENT_3D('',#1343,#1122,#1123);
#870=AXIS2_PLACEMENT_3D('',#1345,#1125,#1126);
#871=AXIS2_PLACEMENT_3D('',#1347,#1128,#1129);
#872=AXIS2_PLACEMENT_3D('',#1349,#1131,#1132);
#873=AXIS2_PLACEMENT_3D('',#1351,#1134,#1135);
#874=AXIS2_PLACEMENT_3D('',#1353,#1137,#1138);
#875=DIRECTION('axis',(0.,0.,1.));
#876=DIRECTION('refdir',(1.,0.,0.));
#877=DIRECTION('center_axis',(0.,0.,-1.));
#878=DIRECTION('ref_axis',(-1.,0.,0.));
#879=DIRECTION('center_axis',(0.,0.,1.));
#880=DIRECTION('ref_axis',(1.,0.,0.));
#881=DIRECTION('center_axis',(-1.22464679914735E-16,-1.,0.));
#882=DIRECTION('ref_axis',(1.,-1.22464679914735E-16,0.));
#883=DIRECTION('center_axis',(0.,0.,-1.));
#884=DIRECTION('ref_axis',(1.,0.,0.));
#885=DIRECTION('center_axis',(0.,0.,-1.));
#886=DIRECTION('ref_axis',(1.,0.,0.));
#887=DIRECTION('center_axis',(0.,0.,1.));
#888=DIRECTION('ref_axis',(1.,0.,0.));
#889=DIRECTION('',(0.,0.,1.));
#890=DIRECTION('center_axis',(0.,0.,-1.));
#891=DIRECTION('ref_axis',(1.,0.,0.));
#892=DIRECTION('',(0.,0.,1.));
#893=DIRECTION('center_axis',(0.,0.,-1.));
#894=DIRECTION('ref_axis',(1.,0.,0.));
#895=DIRECTION('',(0.,0.,-1.));
#896=DIRECTION('center_axis',(0.,0.,1.));
#897=DIRECTION('ref_axis',(1.,0.,0.));
#898=DIRECTION('center_axis',(0.,0.,1.));
#899=DIRECTION('ref_axis',(1.,0.,0.));
#900=DIRECTION('center_axis',(0.,0.,1.));
#901=DIRECTION('ref_axis',(-1.,0.,0.));
#902=DIRECTION('center_axis',(0.,0.,1.));
#903=DIRECTION('ref_axis',(-1.,0.,0.));
#904=DIRECTION('center_axis',(0.,0.,1.));
#905=DIRECTION('ref_axis',(-1.,0.,0.));
#906=DIRECTION('center_axis',(0.,0.,1.));
#907=DIRECTION('ref_axis',(-1.,0.,0.));
#908=DIRECTION('center_axis',(0.,0.,1.));
#909=DIRECTION('ref_axis',(1.,0.,0.));
#910=DIRECTION('center_axis',(0.,0.,-1.));
#911=DIRECTION('ref_axis',(1.,1.22464679914735E-16,0.));
#912=DIRECTION('center_axis',(-1.,0.,0.));
#913=DIRECTION('ref_axis',(0.,1.,0.));
#914=DIRECTION('center_axis',(0.,0.,-1.));
#915=DIRECTION('ref_axis',(1.,0.,0.));
#916=DIRECTION('center_axis',(-1.,0.,0.));
#917=DIRECTION('ref_axis',(0.,-1.,0.));
#918=DIRECTION('center_axis',(0.,0.,1.));
#919=DIRECTION('ref_axis',(-1.,0.,0.));
#920=DIRECTION('',(0.,1.,0.));
#921=DIRECTION('center_axis',(0.,0.,-1.));
#922=DIRECTION('ref_axis',(-1.,0.,0.));
#923=DIRECTION('center_axis',(0.,0.,-1.));
#924=DIRECTION('ref_axis',(-1.,0.,0.));
#925=DIRECTION('center_axis',(0.,0.,-1.));
#926=DIRECTION('ref_axis',(-1.,0.,0.));
#927=DIRECTION('center_axis',(0.,0.,-1.));
#928=DIRECTION('ref_axis',(-1.,0.,0.));
#929=DIRECTION('center_axis',(0.,0.,-1.));
#930=DIRECTION('ref_axis',(-1.,0.,0.));
#931=DIRECTION('',(0.,1.,0.));
#932=DIRECTION('center_axis',(0.,0.,-1.));
#933=DIRECTION('ref_axis',(-1.,0.,0.));
#934=DIRECTION('center_axis',(0.,0.,-1.));
#935=DIRECTION('ref_axis',(-1.,0.,0.));
#936=DIRECTION('center_axis',(0.,0.,-1.));
#937=DIRECTION('ref_axis',(1.,0.,0.));
#938=DIRECTION('center_axis',(0.,0.,-1.));
#939=DIRECTION('ref_axis',(-1.,0.,0.));
#940=DIRECTION('center_axis',(0.,0.,-1.));
#941=DIRECTION('ref_axis',(-1.,0.,0.));
#942=DIRECTION('center_axis',(0.,0.,1.));
#943=DIRECTION('ref_axis',(1.,0.,0.));
#944=DIRECTION('center_axis',(-1.,0.,0.));
#945=DIRECTION('ref_axis',(0.,-1.,0.));
#946=DIRECTION('center_axis',(0.,0.,1.));
#947=DIRECTION('ref_axis',(1.,0.,0.));
#948=DIRECTION('center_axis',(-1.,0.,0.));
#949=DIRECTION('ref_axis',(0.,1.,0.));
#950=DIRECTION('center_axis',(0.,0.,1.));
#951=DIRECTION('ref_axis',(1.,0.,0.));
#952=DIRECTION('',(0.,1.,0.));
#953=DIRECTION('center_axis',(0.,0.,-1.));
#954=DIRECTION('ref_axis',(-1.,0.,0.));
#955=DIRECTION('center_axis',(0.,0.,-1.));
#956=DIRECTION('ref_axis',(-1.,0.,0.));
#957=DIRECTION('center_axis',(0.,0.,-1.));
#958=DIRECTION('ref_axis',(-1.,0.,0.));
#959=DIRECTION('center_axis',(0.,0.,-1.));
#960=DIRECTION('ref_axis',(-1.,0.,0.));
#961=DIRECTION('center_axis',(0.,0.,-1.));
#962=DIRECTION('ref_axis',(-1.,0.,0.));
#963=DIRECTION('',(0.,1.,0.));
#964=DIRECTION('center_axis',(-1.,0.,0.));
#965=DIRECTION('ref_axis',(0.,0.,1.));
#966=DIRECTION('',(0.,0.,-1.));
#967=DIRECTION('center_axis',(-1.,0.,0.));
#968=DIRECTION('ref_axis',(0.,0.,1.));
#969=DIRECTION('',(0.,0.,1.));
#970=DIRECTION('center_axis',(0.,0.,-1.));
#971=DIRECTION('ref_axis',(-1.,0.,0.));
#972=DIRECTION('',(0.,0.,1.));
#973=DIRECTION('center_axis',(0.,0.,-1.));
#974=DIRECTION('ref_axis',(-1.,0.,0.));
#975=DIRECTION('',(0.,0.,-1.));
#976=DIRECTION('center_axis',(0.,0.,-1.));
#977=DIRECTION('ref_axis',(0.707106788562246,0.707106773810849,0.));
#978=DIRECTION('',(0.,0.,-1.));
#979=DIRECTION('center_axis',(0.,0.,-1.));
#980=DIRECTION('ref_axis',(-1.,0.,0.));
#981=DIRECTION('center_axis',(0.,0.,-1.));
#982=DIRECTION('ref_axis',(1.,-6.32576245795227E-9,0.));
#983=DIRECTION('',(0.,0.,1.));
#984=DIRECTION('center_axis',(0.,0.,-1.));
#985=DIRECTION('ref_axis',(-1.,0.,0.));
#986=DIRECTION('center_axis',(0.,0.,-1.));
#987=DIRECTION('ref_axis',(-1.,0.,0.));
#988=DIRECTION('center_axis',(0.,0.,-1.));
#989=DIRECTION('ref_axis',(-1.,0.,0.));
#990=DIRECTION('',(0.,0.,-1.));
#991=DIRECTION('center_axis',(0.,0.,-1.));
#992=DIRECTION('ref_axis',(-1.,0.,0.));
#993=DIRECTION('center_axis',(0.,0.,1.));
#994=DIRECTION('ref_axis',(-1.,0.,0.));
#995=DIRECTION('center_axis',(0.,0.,-1.));
#996=DIRECTION('ref_axis',(-1.,0.,0.));
#997=DIRECTION('center_axis',(0.,0.,-1.));
#998=DIRECTION('ref_axis',(-1.,0.,0.));
#999=DIRECTION('',(0.,0.,-1.));
#1000=DIRECTION('center_axis',(0.,0.,-1.));
#1001=DIRECTION('ref_axis',(-1.,0.,0.));
#1002=DIRECTION('center_axis',(0.,0.,1.));
#1003=DIRECTION('ref_axis',(-1.,0.,0.));
#1004=DIRECTION('center_axis',(0.,0.,-1.));
#1005=DIRECTION('ref_axis',(-1.,0.,0.));
#1006=DIRECTION('center_axis',(0.,0.,-1.));
#1007=DIRECTION('ref_axis',(-1.,0.,0.));
#1008=DIRECTION('',(0.,0.,-1.));
#1009=DIRECTION('center_axis',(0.,0.,-1.));
#1010=DIRECTION('ref_axis',(-1.,0.,0.));
#1011=DIRECTION('center_axis',(0.,0.,1.));
#1012=DIRECTION('ref_axis',(-1.,0.,0.));
#1013=DIRECTION('center_axis',(0.,0.,-1.));
#1014=DIRECTION('ref_axis',(-1.,0.,0.));
#1015=DIRECTION('center_axis',(0.,0.,-1.));
#1016=DIRECTION('ref_axis',(-1.,0.,0.));
#1017=DIRECTION('',(0.,0.,-1.));
#1018=DIRECTION('center_axis',(0.,0.,-1.));
#1019=DIRECTION('ref_axis',(-1.,0.,0.));
#1020=DIRECTION('center_axis',(0.,0.,1.));
#1021=DIRECTION('ref_axis',(-1.,0.,0.));
#1022=DIRECTION('center_axis',(0.,0.,-1.));
#1023=DIRECTION('ref_axis',(-1.,0.,0.));
#1024=DIRECTION('center_axis',(0.,0.,-1.));
#1025=DIRECTION('ref_axis',(-1.,0.,0.));
#1026=DIRECTION('',(0.,0.,-1.));
#1027=DIRECTION('center_axis',(0.,0.,-1.));
#1028=DIRECTION('ref_axis',(-1.,0.,0.));
#1029=DIRECTION('center_axis',(0.,0.,1.));
#1030=DIRECTION('ref_axis',(-1.,0.,0.));
#1031=DIRECTION('center_axis',(0.,0.,-1.));
#1032=DIRECTION('ref_axis',(-1.,0.,0.));
#1033=DIRECTION('center_axis',(0.,0.,-1.));
#1034=DIRECTION('ref_axis',(-1.,0.,0.));
#1035=DIRECTION('',(0.,0.,-1.));
#1036=DIRECTION('center_axis',(0.,0.,-1.));
#1037=DIRECTION('ref_axis',(-1.,0.,0.));
#1038=DIRECTION('center_axis',(0.,0.,1.));
#1039=DIRECTION('ref_axis',(-1.,0.,0.));
#1040=DIRECTION('center_axis',(0.,0.,-1.));
#1041=DIRECTION('ref_axis',(-1.,0.,0.));
#1042=DIRECTION('center_axis',(0.,0.,-1.));
#1043=DIRECTION('ref_axis',(-1.,0.,0.));
#1044=DIRECTION('',(0.,0.,-1.));
#1045=DIRECTION('center_axis',(0.,0.,-1.));
#1046=DIRECTION('ref_axis',(-1.,0.,0.));
#1047=DIRECTION('center_axis',(0.,0.,1.));
#1048=DIRECTION('ref_axis',(-1.,0.,0.));
#1049=DIRECTION('center_axis',(0.,0.,-1.));
#1050=DIRECTION('ref_axis',(-1.,0.,0.));
#1051=DIRECTION('center_axis',(0.,0.,-1.));
#1052=DIRECTION('ref_axis',(-1.,0.,0.));
#1053=DIRECTION('',(0.,0.,-1.));
#1054=DIRECTION('center_axis',(0.,0.,-1.));
#1055=DIRECTION('ref_axis',(-1.,0.,0.));
#1056=DIRECTION('center_axis',(0.,0.,1.));
#1057=DIRECTION('ref_axis',(-1.,0.,0.));
#1058=DIRECTION('center_axis',(0.,0.,1.));
#1059=DIRECTION('ref_axis',(1.,0.,0.));
#1060=DIRECTION('center_axis',(0.,0.,-1.));
#1061=DIRECTION('ref_axis',(1.,0.,0.));
#1062=DIRECTION('center_axis',(1.22464679914735E-16,-1.,0.));
#1063=DIRECTION('ref_axis',(-1.,-1.22464679914735E-16,0.));
#1064=DIRECTION('center_axis',(0.,0.,1.));
#1065=DIRECTION('ref_axis',(1.,0.,0.));
#1066=DIRECTION('center_axis',(0.,0.,1.));
#1067=DIRECTION('ref_axis',(1.,0.,0.));
#1068=DIRECTION('center_axis',(0.,0.,1.));
#1069=DIRECTION('ref_axis',(-1.,-1.22464679914735E-16,0.));
#1070=DIRECTION('center_axis',(0.,0.,1.));
#1071=DIRECTION('ref_axis',(-1.,-1.22464679914735E-16,0.));
#1072=DIRECTION('',(0.,0.,-1.));
#1073=DIRECTION('center_axis',(0.,0.,-1.));
#1074=DIRECTION('ref_axis',(1.,0.,0.));
#1075=DIRECTION('center_axis',(0.,0.,-1.));
#1076=DIRECTION('ref_axis',(-1.,0.,0.));
#1077=DIRECTION('center_axis',(-1.22464679914735E-16,-1.,0.));
#1078=DIRECTION('ref_axis',(1.,-1.22464679914735E-16,0.));
#1079=DIRECTION('center_axis',(0.,0.,-1.));
#1080=DIRECTION('ref_axis',(-1.,-1.22464679914735E-16,0.));
#1081=DIRECTION('center_axis',(0.,0.,1.));
#1082=DIRECTION('ref_axis',(-1.,0.,0.));
#1083=DIRECTION('center_axis',(0.,0.,1.));
#1084=DIRECTION('ref_axis',(-1.,0.,0.));
#1085=DIRECTION('center_axis',(0.,0.,1.));
#1086=DIRECTION('ref_axis',(1.,0.,0.));
#1087=DIRECTION('center_axis',(0.,0.,-1.));
#1088=DIRECTION('ref_axis',(-1.,0.,0.));
#1089=DIRECTION('center_axis',(1.22464679914735E-16,-1.,0.));
#1090=DIRECTION('ref_axis',(-1.,-1.22464679914735E-16,0.));
#1091=DIRECTION('center_axis',(0.,0.,1.));
#1092=DIRECTION('ref_axis',(-1.,0.,0.));
#1093=DIRECTION('center_axis',(0.,0.,1.));
#1094=DIRECTION('ref_axis',(-1.,0.,0.));
#1095=DIRECTION('center_axis',(0.,0.,1.));
#1096=DIRECTION('ref_axis',(1.,0.,0.));
#1097=DIRECTION('center_axis',(0.,0.,-1.));
#1098=DIRECTION('ref_axis',(-1.,0.,0.));
#1099=DIRECTION('center_axis',(0.,0.,-1.));
#1100=DIRECTION('ref_axis',(-1.,0.,0.));
#1101=DIRECTION('center_axis',(0.,0.,-1.));
#1102=DIRECTION('ref_axis',(-1.,0.,0.));
#1103=DIRECTION('center_axis',(0.,0.,-1.));
#1104=DIRECTION('ref_axis',(-1.,0.,0.));
#1105=DIRECTION('center_axis',(0.,0.,-1.));
#1106=DIRECTION('ref_axis',(-1.,0.,0.));
#1107=DIRECTION('center_axis',(0.,0.,-1.));
#1108=DIRECTION('ref_axis',(-1.,0.,0.));
#1109=DIRECTION('',(0.,0.,-1.));
#1110=DIRECTION('center_axis',(0.,0.,-1.));
#1111=DIRECTION('ref_axis',(-1.,0.,0.));
#1112=DIRECTION('',(0.,0.,1.));
#1113=DIRECTION('',(0.,0.,-1.));
#1114=DIRECTION('center_axis',(0.,0.,-1.));
#1115=DIRECTION('ref_axis',(-1.,0.,0.));
#1116=DIRECTION('',(0.,0.,1.));
#1117=DIRECTION('center_axis',(0.,0.,-1.));
#1118=DIRECTION('ref_axis',(0.707106788562247,-0.707106773810848,0.));
#1119=DIRECTION('',(0.,0.,-1.));
#1120=DIRECTION('center_axis',(0.,0.,-1.));
#1121=DIRECTION('ref_axis',(-1.,0.,0.));
#1122=DIRECTION('center_axis',(0.,0.,1.));
#1123=DIRECTION('ref_axis',(1.,0.,0.));
#1124=DIRECTION('',(0.,0.,1.));
#1125=DIRECTION('center_axis',(0.,0.,-1.));
#1126=DIRECTION('ref_axis',(-1.,0.,0.));
#1127=DIRECTION('',(0.,0.,-1.));
#1128=DIRECTION('center_axis',(0.,0.,-1.));
#1129=DIRECTION('ref_axis',(-1.,0.,0.));
#1130=DIRECTION('',(0.,0.,-1.));
#1131=DIRECTION('center_axis',(0.,0.,-1.));
#1132=DIRECTION('ref_axis',(-1.,0.,0.));
#1133=DIRECTION('',(0.,0.,-1.));
#1134=DIRECTION('center_axis',(0.,0.,-1.));
#1135=DIRECTION('ref_axis',(-1.,0.,0.));
#1136=DIRECTION('',(0.,0.,-1.));
#1137=DIRECTION('center_axis',(0.,0.,-1.));
#1138=DIRECTION('ref_axis',(-1.,0.,0.));
#1139=CARTESIAN_POINT('',(0.,0.,0.));
#1140=CARTESIAN_POINT('Origin',(0.,0.,0.3));
#1141=CARTESIAN_POINT('',(13.2,-1.61653377487451E-15,0.));
#1142=CARTESIAN_POINT('Origin',(0.,0.,0.));
#1143=CARTESIAN_POINT('',(13.5,-1.65327317884893E-15,0.3));
#1144=CARTESIAN_POINT('Origin',(13.2,-1.61653377487451E-15,0.3));
#1145=CARTESIAN_POINT('',(-13.5,1.65327317884893E-15,0.3));
#1146=CARTESIAN_POINT('Origin',(0.,0.,0.3));
#1147=CARTESIAN_POINT('Origin',(0.,0.,0.3));
#1148=CARTESIAN_POINT('Origin',(0.,0.,0.));
#1149=CARTESIAN_POINT('',(-13.5,1.65327317884893E-15,17.));
#1150=CARTESIAN_POINT('',(-13.5,-1.65327317884893E-15,0.));
#1151=CARTESIAN_POINT('Origin',(0.,0.,17.));
#1152=CARTESIAN_POINT('',(8.26636589424463E-16,-13.5,3.7));
#1153=CARTESIAN_POINT('',(8.26636589424463E-16,-13.5,11.3000001639128));
#1154=CARTESIAN_POINT('',(0.,-13.5,0.));
#1155=CARTESIAN_POINT('',(8.26636589424463E-16,13.5,11.3000001639128));
#1156=CARTESIAN_POINT('Origin',(0.,0.,11.3000001639128));
#1157=CARTESIAN_POINT('',(8.26636589424463E-16,13.5,3.7));
#1158=CARTESIAN_POINT('',(0.,13.5,0.));
#1159=CARTESIAN_POINT('Origin',(0.,0.,3.7));
#1160=CARTESIAN_POINT('Origin',(0.,0.,0.));
#1161=CARTESIAN_POINT('',(6.8694759113342,-4.77398852043749,0.));
#1162=CARTESIAN_POINT('Origin',(5.1194759113342,-4.77398852043749,0.));
#1163=CARTESIAN_POINT('',(-3.19974746830583,4.94974746830583,0.));
#1164=CARTESIAN_POINT('Origin',(-4.94974746830583,4.94974746830583,0.));
#1165=CARTESIAN_POINT('',(-3.19974746830583,-4.94974746830583,0.));
#1166=CARTESIAN_POINT('Origin',(-4.94974746830583,-4.94974746830583,0.));
#1167=CARTESIAN_POINT('',(6.86947591133419,4.77398852043749,0.));
#1168=CARTESIAN_POINT('Origin',(5.11947591133419,4.77398852043749,0.));
#1169=CARTESIAN_POINT('',(-4.,4.89858719658941E-16,0.));
#1170=CARTESIAN_POINT('Origin',(0.,0.,0.));
#1171=CARTESIAN_POINT('Origin',(0.,0.,3.7));
#1172=CARTESIAN_POINT('',(0.,13.2,4.00000005960464));
#1173=CARTESIAN_POINT('Origin',(0.,13.2,3.7));
#1174=CARTESIAN_POINT('',(0.,-13.2,4.00000005960464));
#1175=CARTESIAN_POINT('Origin',(0.,0.,4.));
#1176=CARTESIAN_POINT('Origin',(0.,-13.2,3.7));
#1177=CARTESIAN_POINT('Origin',(0.,0.,4.));
#1178=CARTESIAN_POINT('',(0.,9.,4.00000005960464));
#1179=CARTESIAN_POINT('',(0.,-42.,4.00000005960464));
#1180=CARTESIAN_POINT('',(-4.28616431776499,7.91383569712679,4.));
#1181=CARTESIAN_POINT('Origin',(0.,0.,4.));
#1182=CARTESIAN_POINT('',(-7.91383578654314,4.28616415266951,4.));
#1183=CARTESIAN_POINT('Origin',(-5.00000010430813,5.,4.));
#1184=CARTESIAN_POINT('',(-7.91383569712679,-4.28616431776499,4.));
#1185=CARTESIAN_POINT('Origin',(0.,0.,4.));
#1186=CARTESIAN_POINT('',(-4.28616415266951,-7.91383578654314,4.));
#1187=CARTESIAN_POINT('Origin',(-5.,-5.00000010430813,4.));
#1188=CARTESIAN_POINT('',(0.,-9.,4.00000005960464));
#1189=CARTESIAN_POINT('Origin',(0.,0.,4.));
#1190=CARTESIAN_POINT('',(0.,-42.,4.00000005960464));
#1191=CARTESIAN_POINT('',(-3.19974746830583,-4.94974746830583,4.));
#1192=CARTESIAN_POINT('Origin',(-4.94974746830583,-4.94974746830583,4.));
#1193=CARTESIAN_POINT('',(-3.19974746830583,4.94974746830583,4.));
#1194=CARTESIAN_POINT('Origin',(-4.94974746830583,4.94974746830583,4.));
#1195=CARTESIAN_POINT('',(-4.,-4.89858719658941E-16,4.));
#1196=CARTESIAN_POINT('Origin',(0.,0.,4.));
#1197=CARTESIAN_POINT('',(6.86947591133419,4.77398852043749,4.));
#1198=CARTESIAN_POINT('Origin',(5.11947591133419,4.77398852043749,4.));
#1199=CARTESIAN_POINT('',(6.8694759113342,-4.77398852043749,4.));
#1200=CARTESIAN_POINT('Origin',(5.1194759113342,-4.77398852043749,4.));
#1201=CARTESIAN_POINT('Origin',(0.,0.,11.3000001639128));
#1202=CARTESIAN_POINT('',(0.,-13.2,11.0000001639128));
#1203=CARTESIAN_POINT('Origin',(0.,-13.2,11.3000001639128));
#1204=CARTESIAN_POINT('',(0.,13.2,11.0000001639128));
#1205=CARTESIAN_POINT('Origin',(0.,0.,11.0000001639128));
#1206=CARTESIAN_POINT('Origin',(0.,13.2,11.3000001639128));
#1207=CARTESIAN_POINT('Origin',(0.,-42.,11.0000001639128));
#1208=CARTESIAN_POINT('',(0.,-9.,11.0000001639128));
#1209=CARTESIAN_POINT('',(0.,-42.,11.0000001639128));
#1210=CARTESIAN_POINT('',(4.28616441788708,-7.91383564290027,11.0000001639128));
#1211=CARTESIAN_POINT('Origin',(0.,0.,11.0000001639128));
#1212=CARTESIAN_POINT('',(7.91383573231663,-4.2861642527916,11.0000001639128));
#1213=CARTESIAN_POINT('Origin',(5.,-4.99999989569187,11.0000001639128));
#1214=CARTESIAN_POINT('',(7.91383578654314,4.28616415266951,11.0000001639128));
#1215=CARTESIAN_POINT('Origin',(0.,0.,11.0000001639128));
#1216=CARTESIAN_POINT('',(4.28616431776499,7.91383569712679,11.0000001639128));
#1217=CARTESIAN_POINT('Origin',(5.00000010430813,5.,11.0000001639128));
#1218=CARTESIAN_POINT('',(0.,9.,11.0000001639128));
#1219=CARTESIAN_POINT('Origin',(0.,0.,11.0000001639128));
#1220=CARTESIAN_POINT('',(0.,-42.,11.0000001639128));
#1221=CARTESIAN_POINT('Origin',(0.,-42.,4.00000005960464));
#1222=CARTESIAN_POINT('',(0.,-9.,27.));
#1223=CARTESIAN_POINT('Origin',(0.,-42.,4.00000005960464));
#1224=CARTESIAN_POINT('',(0.,9.,27.));
#1225=CARTESIAN_POINT('Origin',(0.,0.,27.));
#1226=CARTESIAN_POINT('',(4.28616431776499,7.91383569712679,27.));
#1227=CARTESIAN_POINT('',(4.28616431776499,7.91383569712679,27.));
#1228=CARTESIAN_POINT('',(-4.28616431776499,7.91383569712679,27.));
#1229=CARTESIAN_POINT('Origin',(0.,0.,27.));
#1230=CARTESIAN_POINT('',(-4.28616431776499,7.91383569712679,27.));
#1231=CARTESIAN_POINT('Origin',(5.00000010430813,5.,27.));
#1232=CARTESIAN_POINT('',(7.91383578654314,4.28616415266951,27.));
#1233=CARTESIAN_POINT('',(7.91383578654314,4.28616415266951,27.));
#1234=CARTESIAN_POINT('Origin',(5.00000010430813,5.,27.));
#1235=CARTESIAN_POINT('Origin',(0.,0.,27.));
#1236=CARTESIAN_POINT('',(7.91383573231663,-4.2861642527916,27.));
#1237=CARTESIAN_POINT('',(7.91383573231663,-4.2861642527916,27.));
#1238=CARTESIAN_POINT('Origin',(0.,0.,27.));
#1239=CARTESIAN_POINT('Origin',(0.,-12.0000001788139,27.));
#1240=CARTESIAN_POINT('',(1.,-12.0000001788139,27.));
#1241=CARTESIAN_POINT('Origin',(0.,-12.0000001788139,27.));
#1242=CARTESIAN_POINT('',(1.,-12.0000001788139,19.));
#1243=CARTESIAN_POINT('',(1.,-12.0000001788139,27.));
#1244=CARTESIAN_POINT('Origin',(0.,-12.0000001788139,19.));
#1245=CARTESIAN_POINT('Origin',(0.,-12.0000001788139,19.));
#1246=CARTESIAN_POINT('Origin',(0.,12.0000001788139,27.));
#1247=CARTESIAN_POINT('',(1.,12.0000001788139,27.));
#1248=CARTESIAN_POINT('Origin',(0.,12.0000001788139,27.));
#1249=CARTESIAN_POINT('',(1.,12.0000001788139,19.));
#1250=CARTESIAN_POINT('',(1.,12.0000001788139,27.));
#1251=CARTESIAN_POINT('Origin',(0.,12.0000001788139,19.));
#1252=CARTESIAN_POINT('Origin',(0.,12.0000001788139,19.));
#1253=CARTESIAN_POINT('Origin',(8.7726633496373,8.18781912632814,27.));
#1254=CARTESIAN_POINT('',(9.7726633496373,8.18781912632814,27.));
#1255=CARTESIAN_POINT('Origin',(8.7726633496373,8.18781912632814,27.));
#1256=CARTESIAN_POINT('',(9.7726633496373,8.18781912632814,19.));
#1257=CARTESIAN_POINT('',(9.7726633496373,8.18781912632814,27.));
#1258=CARTESIAN_POINT('Origin',(8.7726633496373,8.18781912632814,19.));
#1259=CARTESIAN_POINT('Origin',(8.7726633496373,8.18781912632814,19.));
#1260=CARTESIAN_POINT('Origin',(-8.48528150067911,-8.48528150067911,27.));
#1261=CARTESIAN_POINT('',(-7.48528150067911,-8.48528150067911,27.));
#1262=CARTESIAN_POINT('Origin',(-8.48528150067911,-8.48528150067911,27.));
#1263=CARTESIAN_POINT('',(-7.48528150067911,-8.48528150067911,19.));
#1264=CARTESIAN_POINT('',(-7.48528150067911,-8.48528150067911,27.));
#1265=CARTESIAN_POINT('Origin',(-8.48528150067911,-8.48528150067911,19.));
#1266=CARTESIAN_POINT('Origin',(-8.48528150067911,-8.48528150067911,19.));
#1267=CARTESIAN_POINT('Origin',(8.77266334963729,-8.18781912632814,27.));
#1268=CARTESIAN_POINT('',(9.77266334963729,-8.18781912632814,27.));
#1269=CARTESIAN_POINT('Origin',(8.77266334963729,-8.18781912632814,27.));
#1270=CARTESIAN_POINT('',(9.77266334963729,-8.18781912632814,19.));
#1271=CARTESIAN_POINT('',(9.77266334963729,-8.18781912632814,27.));
#1272=CARTESIAN_POINT('Origin',(8.77266334963729,-8.18781912632814,19.));
#1273=CARTESIAN_POINT('Origin',(8.77266334963729,-8.18781912632814,19.));
#1274=CARTESIAN_POINT('Origin',(-8.48528150067911,8.48528150067911,27.));
#1275=CARTESIAN_POINT('',(-7.48528150067911,8.48528150067911,27.));
#1276=CARTESIAN_POINT('Origin',(-8.48528150067911,8.48528150067911,27.));
#1277=CARTESIAN_POINT('',(-7.48528150067911,8.48528150067911,19.));
#1278=CARTESIAN_POINT('',(-7.48528150067911,8.48528150067911,27.));
#1279=CARTESIAN_POINT('Origin',(-8.48528150067911,8.48528150067911,19.));
#1280=CARTESIAN_POINT('Origin',(-8.48528150067911,8.48528150067911,19.));
#1281=CARTESIAN_POINT('Origin',(12.0000001788139,0.,27.));
#1282=CARTESIAN_POINT('',(13.0000001788139,1.22464679914735E-16,27.));
#1283=CARTESIAN_POINT('Origin',(12.0000001788139,0.,27.));
#1284=CARTESIAN_POINT('',(13.0000001788139,1.22464679914735E-16,19.));
#1285=CARTESIAN_POINT('',(13.0000001788139,-1.22464679914735E-16,27.));
#1286=CARTESIAN_POINT('Origin',(12.0000001788139,0.,19.));
#1287=CARTESIAN_POINT('Origin',(12.0000001788139,0.,19.));
#1288=CARTESIAN_POINT('Origin',(-12.0000001788139,0.,27.));
#1289=CARTESIAN_POINT('',(-11.0000001788139,1.22464679914735E-16,27.));
#1290=CARTESIAN_POINT('Origin',(-12.0000001788139,0.,27.));
#1291=CARTESIAN_POINT('',(-11.0000001788139,1.22464679914735E-16,19.));
#1292=CARTESIAN_POINT('',(-11.0000001788139,-1.22464679914735E-16,27.));
#1293=CARTESIAN_POINT('Origin',(-12.0000001788139,0.,19.));
#1294=CARTESIAN_POINT('Origin',(-12.0000001788139,0.,19.));
#1295=CARTESIAN_POINT('Origin',(0.,0.,17.3));
#1296=CARTESIAN_POINT('',(-16.,1.95943487863577E-15,17.3));
#1297=CARTESIAN_POINT('Origin',(0.,0.,17.3));
#1298=CARTESIAN_POINT('',(-15.7,-1.92269547466135E-15,17.));
#1299=CARTESIAN_POINT('Origin',(-15.7,-1.92269547466135E-15,17.3));
#1300=CARTESIAN_POINT('Origin',(0.,0.,17.));
#1301=CARTESIAN_POINT('Origin',(0.,0.,0.));
#1302=CARTESIAN_POINT('',(16.,3.91886975727153E-15,18.7));
#1303=CARTESIAN_POINT('',(-16.,-1.95943487863577E-15,18.7));
#1304=CARTESIAN_POINT('Origin',(0.,0.,18.7));
#1305=CARTESIAN_POINT('Origin',(0.,0.,18.7));
#1306=CARTESIAN_POINT('',(-16.,-1.95943487863577E-15,0.));
#1307=CARTESIAN_POINT('Origin',(0.,0.,17.));
#1308=CARTESIAN_POINT('Origin',(0.,0.,18.7));
#1309=CARTESIAN_POINT('',(15.7,0.,19.));
#1310=CARTESIAN_POINT('Origin',(15.7,-1.92269547466135E-15,18.7));
#1311=CARTESIAN_POINT('Origin',(0.,0.,19.));
#1312=CARTESIAN_POINT('Origin',(0.,0.,19.));
#1313=CARTESIAN_POINT('',(15.,1.83697019872103E-15,19.));
#1314=CARTESIAN_POINT('Origin',(0.,0.,19.));
#1315=CARTESIAN_POINT('Origin',(0.,0.,26.7));
#1316=CARTESIAN_POINT('',(-14.7,-1.80023079474661E-15,27.));
#1317=CARTESIAN_POINT('Origin',(0.,0.,27.));
#1318=CARTESIAN_POINT('',(-15.,-1.83697019872103E-15,26.7));
#1319=CARTESIAN_POINT('Origin',(-14.7,-1.80023079474661E-15,26.7));
#1320=CARTESIAN_POINT('',(15.,1.83697019872103E-15,26.7));
#1321=CARTESIAN_POINT('Origin',(0.,0.,26.7));
#1322=CARTESIAN_POINT('Origin',(0.,0.,26.7));
#1323=CARTESIAN_POINT('Origin',(0.,0.,27.));
#1324=CARTESIAN_POINT('',(-4.28616415266951,-7.91383578654314,27.));
#1325=CARTESIAN_POINT('',(-7.91383569712679,-4.28616431776499,27.));
#1326=CARTESIAN_POINT('Origin',(-5.,-5.00000010430813,27.));
#1327=CARTESIAN_POINT('',(-7.91383578654314,4.28616415266951,27.));
#1328=CARTESIAN_POINT('Origin',(0.,0.,27.));
#1329=CARTESIAN_POINT('Origin',(-5.00000010430813,5.,27.));
#1330=CARTESIAN_POINT('',(4.28616441788708,-7.91383564290027,27.));
#1331=CARTESIAN_POINT('Origin',(5.,-4.99999989569187,27.));
#1332=CARTESIAN_POINT('Origin',(0.,0.,27.));
#1333=CARTESIAN_POINT('Origin',(0.,0.,27.));
#1334=CARTESIAN_POINT('',(15.,-1.83697019872103E-15,27.));
#1335=CARTESIAN_POINT('Origin',(-5.,-5.00000010430813,27.));
#1336=CARTESIAN_POINT('',(-4.28616415266951,-7.91383578654314,27.));
#1337=CARTESIAN_POINT('',(-7.91383569712679,-4.28616431776499,27.));
#1338=CARTESIAN_POINT('Origin',(-5.00000010430813,5.,27.));
#1339=CARTESIAN_POINT('',(-7.91383578654314,4.28616415266951,27.));
#1340=CARTESIAN_POINT('Origin',(5.,-4.99999989569187,27.));
#1341=CARTESIAN_POINT('',(4.28616441788708,-7.91383564290027,27.));
#1342=CARTESIAN_POINT('Origin',(0.,0.,27.));
#1343=CARTESIAN_POINT('Origin',(0.,0.,0.));
#1344=CARTESIAN_POINT('',(-4.,-4.89858719658941E-16,0.));
#1345=CARTESIAN_POINT('Origin',(5.11947591133419,4.77398852043749,4.));
#1346=CARTESIAN_POINT('',(6.86947591133419,4.77398852043749,4.));
#1347=CARTESIAN_POINT('Origin',(-4.94974746830583,-4.94974746830583,4.));
#1348=CARTESIAN_POINT('',(-3.19974746830583,-4.94974746830583,4.));
#1349=CARTESIAN_POINT('Origin',(-4.94974746830583,4.94974746830583,4.));
#1350=CARTESIAN_POINT('',(-3.19974746830583,4.94974746830583,4.));
#1351=CARTESIAN_POINT('Origin',(5.1194759113342,-4.77398852043749,4.));
#1352=CARTESIAN_POINT('',(6.8694759113342,-4.77398852043749,4.));
#1353=CARTESIAN_POINT('Origin',(0.,0.,27.));
#1354=UNCERTAINTY_MEASURE_WITH_UNIT(LENGTH_MEASURE(0.01),#1358,
'DISTANCE_ACCURACY_VALUE',
'Maximum model space distance between geometric entities at asserted c
onnectivities');
#1355=UNCERTAINTY_MEASURE_WITH_UNIT(LENGTH_MEASURE(0.01),#1358,
'DISTANCE_ACCURACY_VALUE',
'Maximum model space distance between geometric entities at asserted c
onnectivities');
#1356=(
GEOMETRIC_REPRESENTATION_CONTEXT(3)
GLOBAL_UNCERTAINTY_ASSIGNED_CONTEXT((#1354))
GLOBAL_UNIT_ASSIGNED_CONTEXT((#1358,#1360,#1361))
REPRESENTATION_CONTEXT('','3D')
);
#1357=(
GEOMETRIC_REPRESENTATION_CONTEXT(3)
GLOBAL_UNCERTAINTY_ASSIGNED_CONTEXT((#1355))
GLOBAL_UNIT_ASSIGNED_CONTEXT((#1358,#1360,#1361))
REPRESENTATION_CONTEXT('','3D')
);
#1358=(
LENGTH_UNIT()
NAMED_UNIT(*)
SI_UNIT(.MILLI.,.METRE.)
);
#1359=(
LENGTH_UNIT()
NAMED_UNIT(*)
SI_UNIT($,.METRE.)
);
#1360=(
NAMED_UNIT(*)
PLANE_ANGLE_UNIT()
SI_UNIT($,.RADIAN.)
);
#1361=(
NAMED_UNIT(*)
SI_UNIT($,.STERADIAN.)
SOLID_ANGLE_UNIT()
);
#1362=SHAPE_DEFINITION_REPRESENTATION(#1363,#1364);
#1363=PRODUCT_DEFINITION_SHAPE('',$,#1366);
#1364=SHAPE_REPRESENTATION('',(#759),#1356);
#1365=PRODUCT_DEFINITION_CONTEXT('part definition',#1370,'design');
#1366=PRODUCT_DEFINITION('2026-03-20-14-59-23-250','base_joint',#1367,#1365);
#1367=PRODUCT_DEFINITION_FORMATION('',$,#1372);
#1368=PRODUCT_RELATED_PRODUCT_CATEGORY('base_joint','base_joint',(#1372));
#1369=APPLICATION_PROTOCOL_DEFINITION('international standard',
'automotive_design',2009,#1370);
#1370=APPLICATION_CONTEXT(
'Core Data for Automotive Mechanical Design Process');
#1371=PRODUCT_CONTEXT('part definition',#1370,'mechanical');
#1372=PRODUCT('2026-03-20-14-59-23-250','base_joint',$,(#1371));
#1373=PRESENTATION_STYLE_ASSIGNMENT((#1374));
#1374=SURFACE_STYLE_USAGE(.BOTH.,#1375);
#1375=SURFACE_SIDE_STYLE('',(#1376));
#1376=SURFACE_STYLE_FILL_AREA(#1377);
#1377=FILL_AREA_STYLE('\X2\AC15CCA0\X0\ - \X2\C0C8D2F4\X0\',(#1378));
#1378=FILL_AREA_STYLE_COLOUR('\X2\AC15CCA0\X0\ - \X2\C0C8D2F4\X0\',#1379);
#1379=COLOUR_RGB('\X2\AC15CCA0\X0\ - \X2\C0C8D2F4\X0\',0.627450980392157,
0.627450980392157,0.627450980392157);
ENDSEC;
END-ISO-10303-21;
